# xmcd
#
# Track frame offsets:
#	150
#	12863
#	34098
#	53957
#	77742
#	96532
#	115630
#	134705
#	153122
#	170061
#
# Disc length: 2469 seconds
#
# Revision: 1
# Processed by: cddbd v1.5.2PL0 Copyright (c) Steve Scherf et al.
# Submitted via: EasyCDDAExtractor 15.3.0.1
#
DISCID=7f09a30a
DTITLE=Selena - 10 Great Songs
DYEAR=2011
DGENRE=Pop
TTITLE0=My Love
TTITLE1=I Could Fall In Love
TTITLE2=Captive Heart
TTITLE3=Dreaming Of You
TTITLE4=Is It The Beat
TTITLE5=Missing My Baby
TTITLE6=Only Love
TTITLE7=I'm Getting Used To You
TTITLE8=Where Did The Feeling Go
TTITLE9=A Million To One
EXTD=
EXTT0=
EXTT1=
EXTT2=
EXTT3=
EXTT4=
EXTT5=
EXTT6=
EXTT7=
EXTT8=
EXTT9=
PLAYORDER=
